<?xml version="1.0" encoding="utf-8"?>
<!-- Generator: Adobe Illustrator 17.1.0, SVG Export Plug-In . SVG Version: 6.00 Build 0)  -->
<!DOCTYPE svg PUBLIC "-//W3C//DTD SVG 1.1//EN" "http://www.w3.org/Graphics/SVG/1.1/DTD/svg11.dtd">
<svg version="1.1" id="Layer_1" xmlns="http://www.w3.org/2000/svg" xmlns:xlink="http://www.w3.org/1999/xlink" x="0px" y="0px"
	 width="595.3px" height="841.9px" viewBox="0 0 595.3 841.9" enable-background="new 0 0 595.3 841.9" xml:space="preserve">
<g>
	<path fill="none" stroke="#FFFFFF" stroke-width="0.7644" stroke-miterlimit="10" d="M222.5,328.3c20.3,0.4,40.5,0.8,60.8,1.2
		c0.8,0,0.8,52.8,0.9,58.5c0,2.4,9.7,8.8,11.4,10.3c10.4,9.2,20.8,18.3,31.2,27.5c9.8,8.6,19.5,17.2,29.3,25.8
		c2.1,1.8,14,9.6,13.8,12.9c-0.6,10.4,14.3,10.2,3.1,19.8c-2.2,1.9,2.3,7.9-1.5,10.7c-4.7,3.5,2.3,6.9,2.8,7.8
		c5.2,8.8-43.2,14.1-44.7,8.8c-1.4-4.8-0.8-12.8-7.8-15.2c-5.7-2-10.3-5.4-12.3-8.5c-2.3-3.6-5.5-1.5-9.1-2.6
		c-7.5-2.3-10.4-8.1-19.6-8c-6.1,0-8.4-3.4-7.6-9.2c0.7-5.2-4.6-9.1-7.7-13.2c-2.6-3.5-5.1-7.7-8.2-11c-5.9-6.4,0.7-9.4-3.1-15.6
		c-1.6-2.7-11.9-5.6-9.5-12.6c1.9-5.5-9.7-14.9-12.3-20.2c-3-6.2-6.8-7.7-6.8-15.5c0-6.7,0.5-12.6-6.6-16.8
		c-4.2-2.5,3.6-13.2,3.8-15.3C223.8,341,222.5,334.7,222.5,328.3z"/>
</g>
<g id="Layer_2">
</g>
</svg>
