<?xml version="1.0" encoding="utf-8"?>
<!-- Generator: Adobe Illustrator 17.1.0, SVG Export Plug-In . SVG Version: 6.00 Build 0)  -->
<!DOCTYPE svg PUBLIC "-//W3C//DTD SVG 1.1//EN" "http://www.w3.org/Graphics/SVG/1.1/DTD/svg11.dtd">
<svg version="1.1" id="Layer_1" xmlns="http://www.w3.org/2000/svg" xmlns:xlink="http://www.w3.org/1999/xlink" x="0px" y="0px"
	 width="595.3px" height="841.9px" viewBox="0 0 595.3 841.9" enable-background="new 0 0 595.3 841.9" xml:space="preserve">
<path fill="none" stroke="#FFFFFF" stroke-miterlimit="10" d="M364.3,483.6c5.6-8.7,16.4-9.4,12.2-19.8c-7-17.4-21.9-7.7-28-17.6
	c-6.7-10.9-2.6-18.3-9.8-30.1c-2.8-4.5-9.4-4.2-10.5-9.5c-1.5-7-1.5-18.3-7.1-23c-18-15.1-11.2-19.8-4.8-42.4
	c5.6-19.5-13-12-16.9-16c-4-4,11-21.7-10.7-21c-19.1,0.6-29.4,12.3-28.7,34.4c0.7,22.7,16.2,23.8,14.4,43.8
	c-1.9,19.5,5.9,27.6,14,24.2c6.8-2.9,4.1,19,6.1,28.5c2.9,13.7-11,8.2-16.5,18.6c-1.5,3,5,9,0.6,11.8c-28.9,18.2-14,23.3-0.6,31.4
	c5.1,3.1-26.9,20.9-24.8,31.4c2.4,12.2,71.4-20.4,103.1-24.5C375.7,501.3,357.7,493.8,364.3,483.6z M249.1,390
	c-17.1-9.2-57.3,0.4-49.3,35.3c7.5,8.5,6.5,19.3-3.4,27c-18.4,12.1-16.3,20-11.7,28.3c9.4,17,29.4,21.5,51.4-3.7
	c12.7-14.5,18.5-28.1,17.3-43.6C254.1,418.3,274.3,403.6,249.1,390z"/>
</svg>
