<?xml version="1.0" encoding="utf-8"?>
<!-- Generator: Adobe Illustrator 17.1.0, SVG Export Plug-In . SVG Version: 6.00 Build 0)  -->
<!DOCTYPE svg PUBLIC "-//W3C//DTD SVG 1.1//EN" "http://www.w3.org/Graphics/SVG/1.1/DTD/svg11.dtd">
<svg version="1.1" id="Layer_1" xmlns="http://www.w3.org/2000/svg" xmlns:xlink="http://www.w3.org/1999/xlink" x="0px" y="0px"
	 width="595.3px" height="841.9px" viewBox="0 0 595.3 841.9" enable-background="new 0 0 595.3 841.9" xml:space="preserve">
<path fill="none" d="M246.1,446.5c-1.2-1,0.6-5.1-0.9-7.9c-1.8-3.3-4.7-4.2-8.5-6c-4-1.9-10.8-3-15.3-2.8c-5.8,0.1-9.1,4.2-15.8,3.1
	c0,0,0.9-5-0.9-6.3c-1.8-1.3-17-6.5-17.1-10.4c1.3-4.1,3-7.1,4.4-7.8c1.4-0.8,10.7-0.9,12.8,0c0.8,0.3,0.6,1.2,1,1.5
	c0.6,0.6,2.5,0.1,2.9-0.6c0.4-0.6-0.8-1.5-0.2-3.1c0.5-1.6,7.5-5.1,8-6.9c0.5-1.8-1.2-2.5-0.8-4.4s3.6-1.7,6.7-2.7
	c1.3-1.2-1.1-3.7-0.1-5.9c1-2.2,19-8.1,18.5-10.9s-13.9-18.5-29-18.1c-2.7,2.4,3.5,13.5-0.9,16.9c-1.3,0.2-18.4-11.2-19.9-13.2
	c-2-2.7,10.5-6.9,17-6.8c1.9,0.1-0.7-9.7,0.8-11c1.5-1.3,3.4-1.7,4.4,0.5c0.9,2.2-2.2,7.2-1,8.1c1.2,0.9,21.3,2,20.8-5.8
	c-0.6-3.7-23.4-16.5-23.5-19.6c-0.1-3.1,17.7-17.1,17.7-19.4c-5.6-6.5-79.8,5.5-73.9,27.8c2.5,5.9,12.1,5.1,9.8,6.9
	c-2.4,1.7-47.8-11.8-63.1,0.3c1.3,8.7,0.2,18.7,9.2,23.2c0,0,23.5-12.7,36.2,6.5l3.1,3.8c7.9,7.1,2.1,10.9,4.8,19
	c2.4,7,10.9,14.7,15.3,20.7c-0.4-0.5,10.9,6.6,11.6,7c6.8,3.8,12.3,8.8,20.2,8.4c0,0,0.7,5.6,3.3,6.6c2.6,1,7.5,0,7.5,0
	c-3.5,10.4-2.7,29,11.5,32.1c-3.3,17.4-17.5,43.6,2.7,56.2c1.8-0.1,3.1-2.1,3.2-3.7s-3.8-4.4-3.8-4.4c4.8-2.8,5.9-6.7,3-11.2
	c8.7-9.2,17.3-18.4,25.9-27.6c6.7-7.2,14.6-16.5,13-22.3C264.2,447.4,247.3,447.6,246.1,446.5z M286.8,316.7
	c2.3-1.2,4.2-3.8,6.2-5.5c-16.9-13.5-32.6-6.7-53.9-4.2c-9.2,1.1-11.1,6.5-17,13.8c-4.5,5.6,11.2,5.3,14.6,7.7
	c3.6,2.6,11.8,49.6,22.5,24.1c2.7-6.5,13.8-2.9,17.6-8.5C283.9,333.5,285.9,329.4,286.8,316.7z M298,376.9c0.5,0,2.8-2.7,2.9-3.4
	c0.1-0.6-3.1-5-3.6-4.9c-0.5,0.1-3.1,4.4-3,4.9C294.4,374.1,297.6,376.9,298,376.9z M302.8,376.2c0.2,0.3,7.4,0.3,7.8,0
	c0.3-0.3,0.5-3.8,0-4.5c-0.5-0.8-3.8-2.6-4.5-3.4c-0.8-0.8-1.7-5.4-2.4-5.6c-0.7-0.3-3.5,3.5-3.4,4.2c0.1,0.7,4.9,3.7,5,4.1
	C305.4,371.4,302.6,375.8,302.8,376.2z M485.5,461.5c-9.7-0.9-39.4,8.4-33.8,23.3c0,0-0.3,6.2,1.2,8.8c1.5,2.7,11.7-1.5,20.8,0.1
	c9,1.6,11.2,8.7,19.5,4.8c4.7-2.2,10.8-14.6,8.4-18.5C497.6,473.3,495.2,462.5,485.5,461.5z M536.9,351.8c0,0,7.5-1.3,7.7-4.4
	c0.3-15.9-90.5-12.8-102.3-14c0,0,2.1-4.7-2.6-6.7c-8.4-3.7-21.1,1.3-28.1,9.1c-5.9,6.6-26.2-0.2-32.1,1.5
	c-4.1,1.2-17.2,15.6-23.4,15.5c-5.3-0.1-6.5-4.1-5.3-5.6c1.2-1.5,4.1-4.9,1.9-5.9c-15.7-7.3-40.4,1.3-36.9,21.7
	c0.5,2.7,15.5-2.8,16.6-2.8c0.7,0,9.4-2.6,11.3-2.4c0.8,0.1,2.7,2,2.9,3c0.1,0.6-10.8,3.3-12.8,7.8c-5.5,2-12.7-2.6-13.3-2.9
	c-0.6-0.4-2.7,1-2.9,1.9c-0.1,0.8,1.5,3.1,1.4,4.4c-0.1,1.3-14,7.4-14.4,9.9c0,2.3,1.7,4.8,0.7,6.7c-0.5,1-6.6-0.5-7.5,0.3
	c-0.9,0.9,2.5,11.5,4,11.7c1.5,0.2,13.3-12.1,18-12.1c3.4,0,5.5,5.2,8.5,9.4c2.3,1.1,3.9-3.8,3.6-5.5c-0.3-1.6-6.2-6.2-6.3-7.5
	c-0.1-1.3-0.2-1.6,2-1.7c2.3-0.2,17.5,21.6,7,19.8c-5-0.8-10.4-2.7-12.8-3.3c-14.1-3.3-17.6,1.9-28.9,11.9
	c-6.7,5.9-5.1,18.2,1.4,23.8c8.3,7.2,19.1,0.2,27,9.2c0,0,7.6,14,3,20.1c-3.7,4.9,5.7,20.6,7.8,26.3c14.9,5.9,26.7-28.7,25.5-35.4
	s20.2-15.4,14.6-22.7c-5.4-7.1-24-16.3-20.6-26.2c0.8-2.2,14.8,12.2,16.2,13.1c1.5,0.9,15.1,3.3,15.3-0.2c0.8-7.4,9.7-7.4,13.4-6
	c2.4,0.9,4.8,9.7,7.4,10.5c2.6,0.8,34.1,12.1,36.7,7.8c2.3-3.8-4.7-9.1-3.3-11.5c2.1-3.4,3.2-6.5,4.8-8.1
	c2.4-2.3,16.2,2.3,17.5-15.5c1.3-2.2,7.2-1.6,11.3-3.6c1-0.5,11.2-5.9,11.4-11.6c0.2-3.1-1.6-6.9-2.5-8.5
	c-1.2-11.6,24.2-12.4,29.2-11.9c1.7,0.2,23.5-2.2,24.2-3.5c0.8-1.4,0.5-2.4,0.5-4.1C533.9,351.8,536.9,351.8,536.9,351.8z"/>
</svg>
