<?xml version="1.0" encoding="utf-8"?>
<!-- Generator: Adobe Illustrator 17.1.0, SVG Export Plug-In . SVG Version: 6.00 Build 0)  -->
<!DOCTYPE svg PUBLIC "-//W3C//DTD SVG 1.1//EN" "http://www.w3.org/Graphics/SVG/1.1/DTD/svg11.dtd">
<svg version="1.1" id="Layer_1" xmlns="http://www.w3.org/2000/svg" xmlns:xlink="http://www.w3.org/1999/xlink" x="0px" y="0px"
	 viewBox="0 0 1024 768" enable-background="new 0 0 1024 768" xml:space="preserve">
<g>
	<path d="M363.3,285.9c-2.1-1.8,1-8.8-1.6-13.6c-3.1-5.7-8-7.2-14.7-10.4c-6.8-3.2-18.5-5.1-26.4-4.9c-9.9,0.2-15.7,7.3-27.1,5.4
		c0,0,1.6-8.6-1.5-10.9c-3.1-2.3-29.3-11.1-29.5-17.9c2.2-7,5.2-12.2,7.6-13.5c2.4-1.3,18.4-1.5,22.1,0c1.4,0.6,1,2,1.7,2.6
		c1.1,1,4.3,0.2,5-1c0.7-1.1-1.3-2.6-0.4-5.4c0.8-2.8,12.9-8.8,13.7-11.9s-2.1-4.3-1.4-7.5c0.7-3.3,6.2-2.9,11.6-4.6
		c2.3-2-1.9-6.3-0.1-10.1c1.8-3.8,32.6-13.9,31.9-18.8s-23.9-31.8-49.9-31.1c-4.7,4.2,6.1,23.3-1.6,29c-2.3,0.3-31.6-19.2-34.3-22.7
		c-3.5-4.6,18.1-11.9,29.2-11.7c3.2,0.1-1.2-16.7,1.4-18.9c2.6-2.3,5.9-2.9,7.5,0.8s-3.8,12.4-1.8,13.9s36.7,3.4,35.8-9.9
		c-1-6.3-40.2-28.3-40.4-33.8c-0.2-5.4,30.4-29.4,30.4-33.4c-9.6-11.2-137.2,9.5-127.2,47.9c4.3,10.1,20.9,8.8,16.8,11.8
		c-4,3-82.2-20.3-108.6,0.5c2.3,14.9,0.3,32.2,15.8,39.9c0,0,40.4-21.8,62.2,11.1l5.3,6.5c13.6,12.2,3.6,18.7,8.2,32.6
		c4.1,12.1,18.7,25.3,26.3,35.6c-0.7-0.9,18.7,11.3,19.9,12c11.7,6.6,21.1,15.2,34.8,14.4c0,0,1.2,9.6,5.7,11.4
		c4.5,1.8,12.9,0,12.9,0c-6,17.9-4.7,49.9,19.8,55.3c-5.6,29.9-30.1,75,4.7,96.7c3.1-0.2,5.4-3.6,5.5-6.3c0.1-2.7-6.6-7.6-6.6-7.6
		c8.2-4.8,10.1-11.5,5.1-19.2c14.9-15.8,29.8-31.6,44.6-47.4c11.6-12.3,25.1-28.3,22.4-38.3C394.4,287.5,365.4,287.8,363.3,285.9z"
		/>
	<path d="M433.3,62.7c3.9-2.1,7.3-6.5,10.6-9.5c-29.1-23.3-56.1-11.6-92.7-7.3c-15.9,1.9-19.1,11.1-29.3,23.8
		c-7.7,9.6,19.3,9.2,25.1,13.3c6.2,4.4,20.3,85.3,38.7,41.4c4.7-11.1,23.7-5,30.2-14.6C428.3,91.5,431.8,84.6,433.3,62.7z"/>
	<path d="M452.7,166.2c0.8,0,4.9-4.7,5-5.8c0.2-1.1-5.4-8.6-6.2-8.5c-0.8,0.1-5.3,7.5-5.2,8.5C446.4,161.4,452,166.2,452.7,166.2z"
		/>
	<path d="M460.9,165c0.4,0.6,12.8,0.6,13.4,0c0.6-0.6,0.8-6.5,0-7.8c-0.8-1.3-6.5-4.4-7.8-5.8s-3-9.3-4.2-9.7
		c-1.2-0.5-6.1,6.1-5.9,7.3c0.2,1.2,8.4,6.4,8.6,7.1S460.5,164.4,460.9,165z"/>
	<path d="M793.8,307.4"/>
	<path d="M775.1,311.8c-16.6-1.6-67.8,14.4-58.2,40.1c0,0-0.5,10.6,2.1,15.2c2.6,4.6,20.2-2.6,35.7,0.1s19.2,15,33.6,8.2
		c8.1-3.8,18.5-25.2,14.5-31.8C795.9,332,791.8,313.4,775.1,311.8z"/>
	<path d="M863.6,123c0,0,12.9-2.2,13.2-7.6c0.6-27.4-155.7-22-175.9-24.1c0,0,3.6-8-4.4-11.5c-14.4-6.3-36.3,2.3-48.3,15.7
		c-10.2,11.4-45-0.4-55.3,2.6c-7.1,2.1-29.6,26.9-40.3,26.7c-9.1-0.1-11.2-7.1-9.2-9.6c2.1-2.5,7.1-8.4,3.2-10.2
		c-27-12.5-69.5,2.3-63.5,37.4c0.8,4.6,26.6-4.9,28.6-4.8c1.2,0,16.2-4.4,19.4-4.1c1.4,0.1,4.6,3.4,5,5.1
		c0.2,1.1-18.6,5.6-22.1,13.5c-9.4,3.4-21.9-4.4-22.9-5c-1.1-0.7-4.7,1.8-5,3.2s2.6,5.4,2.4,7.5c-0.2,2.2-24.1,12.8-24.7,17.1
		c0,3.9,3,8.3,1.2,11.5c-0.9,1.7-11.4-0.9-12.9,0.5c-1.6,1.6,4.3,19.8,6.9,20.2s22.8-20.9,31-20.9c5.9,0,9.4,9,14.7,16.2
		c3.9,1.9,6.7-6.6,6.2-9.4c-0.5-2.7-10.7-10.6-10.8-12.9c-0.1-2.3-0.4-2.7,3.4-3c3.9-0.3,30.1,37.2,12,34.1
		c-8.6-1.4-17.9-4.6-22.1-5.6c-24.2-5.7-30.3,3.2-49.7,20.4c-11.5,10.1-8.7,31.3,2.4,40.9c14.3,12.3,32.8,0.4,46.4,15.9
		c0,0,13.1,24.1,5.2,34.6c-6.3,8.4,9.8,35.5,13.5,45.2c25.7,10.1,46-49.4,43.8-60.9s34.7-26.5,25.1-39.1
		c-9.3-12.2-41.2-28.1-35.5-45c1.3-3.8,25.4,21,27.9,22.5s26,5.7,26.3-0.4c1.3-12.8,16.6-12.8,23-10.4c4.2,1.6,8.3,16.7,12.7,18.1
		c4.5,1.3,58.6,20.9,63.2,13.5c4-6.5-8.1-15.7-5.7-19.7c3.6-5.9,5.5-11.2,8.3-13.9c4.1-4,27.9,4,30.1-26.7
		c2.2-3.7,12.4-2.8,19.5-6.2c1.7-0.8,19.3-10.2,19.6-20c0.3-5.3-2.7-11.8-4.3-14.6c-2.1-20,41.6-21.3,50.3-20.5
		c2.9,0.3,40.5-3.8,41.7-6c1.4-2.4,0.9-4.1,0.9-7C858.4,123.1,863.6,123,863.6,123z"/>
</g>
</svg>
